<svg id="visual" viewBox="0 0 900 600" width="900" height="600" xmlns="http://www.w3.org/2000/svg" xmlns:xlink="http://www.w3.org/1999/xlink" version="1.1">
<rect x="0" y="0" width="900" height="600" fill="#1f1f1f"></rect>
<path d="M0 218L21.5 220.3C43 222.7 86 227.3 128.8 236.3C171.7 245.3 214.3 258.7 257.2 251.2C300 243.7 343 215.3 385.8 210.2C428.7 205 471.3 223 514.2 233.2C557 243.3 600 245.7 642.8 239.7C685.7 233.7 728.3 219.3 771.2 219.8C814 220.3 857 235.7 878.5 243.3L900 251L900 601L878.5 601C857 601 814 601 771.2 601C728.3 601 685.7 601 642.8 601C600 601 557 601 514.2 601C471.3 601 428.7 601 385.8 601C343 601 300 601 257.2 601C214.3 601 171.7 601 128.8 601C86 601 43 601 21.5 601L0 601Z" fill="#2ecc71"></path>
<path d="M0 347L21.5 351C43 355 86 363 128.8 360.8C171.7 358.7 214.3 346.3 257.2 333.8C300 321.3 343 308.7 385.8 300.3C428.7 292 471.3 288 514.2 300.2C557 312.3 600 340.7 642.8 352C685.7 363.3 728.3 357.7 771.2 354.7C814 351.7 857 351.3 878.5 351.2L900 351L900 601L878.5 601C857 601 814 601 771.2 601C728.3 601 685.7 601 642.8 601C600 601 557 601 514.2 601C471.3 601 428.7 601 385.8 601C343 601 300 601 257.2 601C214.3 601 171.7 601 128.8 601C86 601 43 601 21.5 601L0 601Z" fill="#089f64"></path>
<path d="M0 348L21.5 354.5C43 361 86 374 128.8 382C171.7 390 214.3 393 257.2 389.2C300 385.3 343 374.7 385.8 377.8C428.7 381 471.3 398 514.2 413.2C557 428.3 600 441.7 642.8 430C685.7 418.3 728.3 381.7 771.2 375.3C814 369 857 393 878.5 405L900 417L900 601L878.5 601C857 601 814 601 771.2 601C728.3 601 685.7 601 642.8 601C600 601 557 601 514.2 601C471.3 601 428.7 601 385.8 601C343 601 300 601 257.2 601C214.3 601 171.7 601 128.8 601C86 601 43 601 21.5 601L0 601Z" fill="#007452"></path>
<path d="M0 451L21.5 457.8C43 464.7 86 478.3 128.8 484.2C171.7 490 214.3 488 257.2 481.7C300 475.3 343 464.7 385.8 459.2C428.7 453.7 471.3 453.3 514.2 460.2C557 467 600 481 642.8 494.5C685.7 508 728.3 521 771.2 511.8C814 502.7 857 471.3 878.5 455.7L900 440L900 601L878.5 601C857 601 814 601 771.2 601C728.3 601 685.7 601 642.8 601C600 601 557 601 514.2 601C471.3 601 428.7 601 385.8 601C343 601 300 601 257.2 601C214.3 601 171.7 601 128.8 601C86 601 43 601 21.5 601L0 601Z" fill="#024b3b"></path>
</svg>